<svg width="400" height="400" viewBox="0 0 400 400" fill="none" xmlns="http://www.w3.org/2000/svg">
<rect width="400" height="400" fill="white"/>
<path d="M64.6484 315.312C64.1276 327.161 49.7396 334.388 21.4844 336.992C20.4427 339.076 20.4427 342.135 21.4844 346.172C46.0938 345.391 63.5417 345 73.8281 345C90.1042 345 108.659 345.391 129.492 346.172C130.534 342.135 130.534 339.076 129.492 336.992C100.977 334.388 86.5885 327.161 86.3281 315.312C85.026 274.818 84.375 239.531 84.375 209.453C84.375 168.307 84.8958 131.914 85.9375 100.273H87.8906L183.203 340.117H185.156L274.219 104.961H275.977C277.279 144.154 277.93 178.984 277.93 209.453C277.93 251.771 277.279 287.904 275.977 317.852C275.716 321.237 274.154 324.167 271.289 326.641C268.555 328.984 264.453 330.872 258.984 332.305C253.516 333.607 248.893 334.518 245.117 335.039C241.341 335.56 236.523 336.081 230.664 336.602C229.622 338.685 229.622 341.745 230.664 345.781C252.799 345 275.456 344.609 298.633 344.609C326.367 344.609 353.06 345 378.711 345.781C379.753 343.438 379.753 340.378 378.711 336.602C335.482 333.997 313.737 327.878 313.477 318.242C311.914 277.357 311.133 236.276 311.133 195C311.133 155.026 311.654 118.633 312.695 85.8203C312.956 76.1849 334.701 70.0651 377.93 67.4609C378.971 63.6849 378.971 60.625 377.93 58.2812C352.279 59.0625 318.164 59.4531 275.586 59.4531L192.383 276.641L112.305 59.4531C80.5339 59.4531 52.4089 58.9323 27.9297 57.8906C26.6276 60.4948 26.6276 62.9688 27.9297 65.3125C43.4245 67.526 53.5156 70.7812 58.2031 75.0781C63.0208 79.2448 65.5599 88.9453 65.8203 104.18C66.7318 136.211 67.1875 166.484 67.1875 195C67.1875 234.453 66.3411 274.557 64.6484 315.312ZM56.6406 315.312C58.3333 274.297 59.1797 234.193 59.1797 195C59.1797 166.484 58.724 136.211 57.8125 104.18C57.5521 92.2005 55.2083 84.5182 50.7812 81.1328C46.4844 77.6172 37.1094 74.8828 22.6562 72.9297C19.0104 64.987 19.1406 57.1745 23.0469 49.4922C52.9948 50.7943 91.9271 51.4453 139.844 51.4453L203.906 222.539L269.922 51.4453C304.818 51.4453 343.359 50.9245 385.547 49.8828C388.151 58.3464 388.411 66.7448 386.328 75.0781C357.552 77.9427 343.034 81.7839 342.773 86.6016C341.602 111.081 341.016 147.214 341.016 195C341.016 244.349 341.862 285.169 343.555 317.461C343.815 322.279 358.333 326.12 387.109 328.984C389.193 337.318 388.932 345.716 386.328 354.18C344.141 353.138 319.596 352.617 312.695 352.617C302.279 352.617 273.112 353.138 225.195 354.18C221.94 345.065 221.94 336.667 225.195 328.984C253.451 326.12 267.708 322.409 267.969 317.852C269.271 287.383 269.922 251.25 269.922 209.453C269.922 176.901 269.792 153.008 269.531 137.773L190.625 348.125H177.539L92.3828 133.477V209.453C92.3828 239.531 93.0339 274.818 94.3359 315.312C94.5964 322.344 108.854 327.031 137.109 329.375C140.365 337.188 140.365 345.586 137.109 354.57C98.1771 353.008 57.7474 353.008 15.8203 354.57C12.6953 345.586 12.6953 337.188 15.8203 329.375C42.7734 326.771 56.3802 322.083 56.6406 315.312Z" fill="black"/>
</svg>
